<svg width="17" height="15" viewBox="0 0 17 15" fill="none" xmlns="http://www.w3.org/2000/svg">
<path fill-rule="evenodd" clip-rule="evenodd" d="M6.6113 15H10.3887C13.0416 15 14.3684 15 15.3212 14.3875C15.7324 14.1233 16.0865 13.7824 16.3633 13.3842C17 12.4675 17 11.19 17 8.63668C17 6.08252 17 4.80586 16.3633 3.8892C16.0865 3.49096 15.7324 3.15003 15.3212 2.88586C14.7093 2.4917 13.9425 2.35087 12.7687 2.30087C12.2085 2.30087 11.7266 1.89253 11.617 1.36337C11.5332 0.97576 11.3154 0.628401 11.0006 0.379997C10.6857 0.131593 10.293 -0.00262067 9.8889 3.87756e-05H7.1111C6.2713 3.87756e-05 5.54795 0.570871 5.38305 1.36337C5.2734 1.89253 4.79145 2.30087 4.2313 2.30087C3.0583 2.35087 2.2916 2.49253 1.67875 2.88586C1.26788 3.15008 0.914068 3.49101 0.6375 3.8892C0 4.80586 0 6.08252 0 8.63668C0 11.19 5.06639e-08 12.4667 0.63665 13.3842C0.91205 13.7808 1.26565 14.1217 1.67875 14.3875C2.6316 15 3.95845 15 6.6113 15ZM8.5 5.22753C6.54415 5.22753 4.95805 6.75336 4.95805 8.63585C4.95805 10.5192 6.54415 12.045 8.5 12.045C10.4559 12.045 12.042 10.5192 12.042 8.63668C12.042 6.75336 10.4559 5.22753 8.5 5.22753ZM8.5 6.59086C7.327 6.59086 6.375 7.50669 6.375 8.63668C6.375 9.76585 7.327 10.6817 8.5 10.6817C9.673 10.6817 10.625 9.76585 10.625 8.63668C10.625 7.50669 9.673 6.59086 8.5 6.59086ZM12.5137 5.90919C12.5137 5.53252 12.8308 5.22753 13.2226 5.22753H14.1661C14.5571 5.22753 14.875 5.53252 14.875 5.90919C14.8732 6.0916 14.7976 6.26586 14.6649 6.39367C14.5321 6.52149 14.353 6.59241 14.167 6.59086H13.2226C13.1304 6.59174 13.0389 6.5748 12.9534 6.54102C12.8679 6.50724 12.79 6.45727 12.7241 6.39397C12.6583 6.33067 12.6058 6.25528 12.5697 6.1721C12.5336 6.08892 12.5146 5.99958 12.5137 5.90919Z" fill="#32B5AD"/>
</svg>
