<svg width="16" height="16" viewBox="0 0 16 16" fill="none" xmlns="http://www.w3.org/2000/svg">
<path d="M8.00231 0C9.21077 0.000698209 10.4034 0.275004 11.4906 0.802333C12.5779 1.32966 13.5316 2.09632 14.2801 3.04477C15.0286 3.99322 15.5525 5.09883 15.8126 6.27864C16.0726 7.45845 16.0619 8.6818 15.7814 9.85691C15.5009 11.032 14.9578 12.1284 14.1929 13.0636C13.428 13.9989 12.4611 14.7489 11.3649 15.2572C10.2686 15.7656 9.07139 16.0191 7.8631 15.9988C6.65481 15.9785 5.46682 15.6848 4.38827 15.1399L4.26723 15.0749L0.62118 15.9849C0.55101 16.0025 0.477848 16.0048 0.406742 15.9914C0.335636 15.978 0.268279 15.9494 0.209319 15.9074C0.150359 15.8655 0.1012 15.8113 0.0652347 15.7485C0.0292693 15.6858 0.00735357 15.616 0.00100022 15.5439V15.4619L0.0150044 15.3789L0.925267 11.7349L0.862249 11.6149C0.404501 10.7141 0.122725 9.73428 0.0320093 8.72795L0.00700199 8.34595L0 7.99995C0 5.87823 0.843099 3.84341 2.34382 2.34313C3.84455 0.84285 5.87997 0 8.00231 0ZM8.50246 8.99995H5.50159L5.41156 9.00795C5.29625 9.02882 5.19193 9.08951 5.1168 9.17943C5.04168 9.26935 5.00053 9.38279 5.00053 9.49994C5.00053 9.6171 5.04168 9.73054 5.1168 9.82046C5.19193 9.91037 5.29625 9.97107 5.41156 9.99194L5.50159 9.99994H8.50246L8.59248 9.99194C8.7078 9.97107 8.81212 9.91037 8.88724 9.82046C8.96237 9.73054 9.00352 9.6171 9.00352 9.49994C9.00352 9.38279 8.96237 9.26935 8.88724 9.17943C8.81212 9.08951 8.7078 9.02882 8.59248 9.00795L8.50246 8.99995ZM10.503 5.99996H5.50159L5.41156 6.00796C5.29625 6.02884 5.19193 6.08953 5.1168 6.17945C5.04168 6.26937 5.00053 6.38281 5.00053 6.49996C5.00053 6.61712 5.04168 6.73055 5.1168 6.82047C5.19193 6.91039 5.29625 6.97108 5.41156 6.99196L5.50159 6.99996H10.503L10.5931 6.99196C10.7084 6.97108 10.8127 6.91039 10.8878 6.82047C10.9629 6.73055 11.0041 6.61712 11.0041 6.49996C11.0041 6.38281 10.9629 6.26937 10.8878 6.17945C10.8127 6.08953 10.7084 6.02884 10.5931 6.00796L10.503 5.99996Z" fill="white"/>
</svg>
