<svg width="17" height="7" viewBox="0 0 17 7" fill="none" xmlns="http://www.w3.org/2000/svg">
<path d="M10.167 0.956638L4.34604 6.80039C4.24489 6.89857 4.10969 6.95346 3.96899 6.95346C3.82829 6.95346 3.6931 6.89857 3.59195 6.80039L0.681444 3.87851C0.597059 3.77529 0.553935 3.64425 0.56046 3.51088C0.566985 3.37751 0.622692 3.25134 0.716746 3.15692C0.810801 3.0625 0.936477 3.00658 1.06933 3.00003C1.20218 2.99347 1.33271 3.03677 1.43553 3.12148L3.96899 5.67148L9.41296 0.199608C9.51578 0.114893 9.64631 0.0716 9.77916 0.0781503C9.91201 0.0847007 10.0377 0.140626 10.1317 0.235047C10.2258 0.329469 10.2815 0.455636 10.288 0.589008C10.2946 0.722379 10.2514 0.853419 10.167 0.956638ZM16.2526 0.199608C16.1523 0.0998485 16.0168 0.0438843 15.8756 0.0438843C15.7344 0.0438843 15.5989 0.0998485 15.4986 0.199608L10.0546 5.67148L8.88378 4.49609C8.78311 4.40453 8.65123 4.35533 8.51543 4.35869C8.37963 4.36204 8.25032 4.41769 8.15427 4.51412C8.05822 4.61055 8.00278 4.74037 7.99943 4.8767C7.99609 5.01303 8.0451 5.14543 8.13631 5.24648L9.67755 6.80039C9.7787 6.89857 9.91389 6.95346 10.0546 6.95346C10.1953 6.95346 10.3305 6.89857 10.4316 6.80039L16.2526 0.956638C16.352 0.855917 16.4078 0.719886 16.4078 0.578123C16.4078 0.43636 16.352 0.300329 16.2526 0.199608Z" fill="#32B5AD"/>
</svg>
