<svg width="22" height="22" viewBox="0 0 22 22" fill="none" xmlns="http://www.w3.org/2000/svg">
<path d="M11 22C4.93429 22 0 17.0657 0 11C0 4.93429 4.93429 0 11 0C17.0657 0 22 4.93429 22 11C22 17.0657 17.0657 22 11 22ZM11 1.57143C5.79857 1.57143 1.57143 5.79857 1.57143 11C1.57143 16.2014 5.79857 20.4286 11 20.4286C16.2014 20.4286 20.4286 16.2014 20.4286 11C20.4286 5.79857 16.2014 1.57143 11 1.57143Z" fill="white"/>
<path d="M7.5 9C8.32843 9 9 8.32843 9 7.5C9 6.67157 8.32843 6 7.5 6C6.67157 6 6 6.67157 6 7.5C6 8.32843 6.67157 9 7.5 9Z" fill="white"/>
<path d="M14.5 9C15.3284 9 16 8.32843 16 7.5C16 6.67157 15.3284 6 14.5 6C13.6716 6 13 6.67157 13 7.5C13 8.32843 13.6716 9 14.5 9Z" fill="white"/>
<path d="M15.2503 16.996C14.9351 16.996 14.6498 16.7795 14.5447 16.4464C14.2865 15.6328 13.807 14.9281 13.1724 14.4297C12.5378 13.9312 11.7794 13.6635 11.0018 13.6635C10.2242 13.6635 9.4658 13.9312 8.8312 14.4297C8.1966 14.9281 7.7171 15.6328 7.45886 16.4464C7.32375 16.8794 6.88839 17.1125 6.49807 16.946C6.40458 16.9101 6.31853 16.8538 6.245 16.7804C6.17147 16.707 6.11196 16.618 6.06997 16.5186C6.02798 16.4192 6.00438 16.3116 6.00055 16.2019C5.99673 16.0922 6.01276 15.9829 6.04769 15.8802C6.7833 13.5487 8.77996 12 11.0018 12C13.2236 12 15.2203 13.5654 15.9559 15.8802C15.9965 16.0059 16.0093 16.1406 15.9933 16.273C15.9772 16.4053 15.9327 16.5314 15.8636 16.6408C15.7945 16.7501 15.7027 16.8394 15.596 16.9012C15.4893 16.963 15.3707 16.9955 15.2503 16.996Z" fill="white"/>
</svg>
