<svg width="14" height="14" viewBox="0 0 14 14" fill="none" xmlns="http://www.w3.org/2000/svg">
<path d="M7 0C3.13306 0 0 3.13306 0 7C0 10.8669 3.13306 14 7 14C10.8669 14 14 10.8669 14 7C14 3.13306 10.8669 0 7 0ZM9.25806 4.74194C9.75766 4.74194 10.1613 5.14556 10.1613 5.64516C10.1613 6.14476 9.75766 6.54839 9.25806 6.54839C8.75847 6.54839 8.35484 6.14476 8.35484 5.64516C8.35484 5.14556 8.75847 4.74194 9.25806 4.74194ZM4.74194 4.74194C5.24153 4.74194 5.64516 5.14556 5.64516 5.64516C5.64516 6.14476 5.24153 6.54839 4.74194 6.54839C4.24234 6.54839 3.83871 6.14476 3.83871 5.64516C3.83871 5.14556 4.24234 4.74194 4.74194 4.74194ZM10.2403 9.54597C9.43589 10.5113 8.25605 11.0645 7 11.0645C5.74395 11.0645 4.56411 10.5113 3.75968 9.54597C3.37581 9.08589 4.07016 8.51008 4.45403 8.96734C5.08629 9.72661 6.0121 10.1585 7 10.1585C7.9879 10.1585 8.91371 9.72379 9.54597 8.96734C9.92419 8.51008 10.6214 9.08589 10.2403 9.54597Z" fill="white"/>
</svg>
