<svg width="21" height="20" viewBox="0 0 21 20" fill="none" xmlns="http://www.w3.org/2000/svg">
<path d="M5.25 20C4.52083 20 3.90104 19.7464 3.39062 19.2391C2.88021 18.7319 2.625 18.1159 2.625 17.3913C2.625 16.6667 2.88021 16.0507 3.39062 15.5435C3.90104 15.0362 4.52083 14.7826 5.25 14.7826C5.45417 14.7826 5.64375 14.8043 5.81875 14.8478C5.99375 14.8913 6.16146 14.9493 6.32188 15.0217L7.56875 13.4783C7.16042 13.029 6.87604 12.5217 6.71563 11.9565C6.55521 11.3913 6.51875 10.8261 6.60625 10.2609L4.83437 9.67391C4.58646 10.0362 4.27292 10.3261 3.89375 10.5435C3.51458 10.7609 3.09167 10.8696 2.625 10.8696C1.89583 10.8696 1.27604 10.6159 0.765625 10.1087C0.255208 9.60145 0 8.98551 0 8.26087C0 7.53623 0.255208 6.92029 0.765625 6.41304C1.27604 5.9058 1.89583 5.65217 2.625 5.65217C3.35417 5.65217 3.97396 5.9058 4.48438 6.41304C4.99479 6.92029 5.25 7.53623 5.25 8.26087V8.43478L7.02187 9.04348C7.31354 8.52174 7.70379 8.07971 8.19263 7.71739C8.68146 7.35507 9.23183 7.12319 9.84375 7.02174V5.13043C9.275 4.97101 8.80454 4.6629 8.43237 4.20609C8.06021 3.74928 7.87442 3.21681 7.875 2.6087C7.875 1.88406 8.13021 1.26812 8.64062 0.76087C9.15104 0.253623 9.77083 0 10.5 0C11.2292 0 11.849 0.253623 12.3594 0.76087C12.8698 1.26812 13.125 1.88406 13.125 2.6087C13.125 3.21739 12.9354 3.75014 12.5563 4.20696C12.1771 4.66377 11.7104 4.97159 11.1562 5.13043V7.02174C11.7688 7.12319 12.3194 7.35507 12.8082 7.71739C13.2971 8.07971 13.687 8.52174 13.9781 9.04348L15.75 8.43478V8.26087C15.75 7.53623 16.0052 6.92029 16.5156 6.41304C17.026 5.9058 17.6458 5.65217 18.375 5.65217C19.1042 5.65217 19.724 5.9058 20.2344 6.41304C20.7448 6.92029 21 7.53623 21 8.26087C21 8.98551 20.7448 9.60145 20.2344 10.1087C19.724 10.6159 19.1042 10.8696 18.375 10.8696C17.9083 10.8696 17.4816 10.7609 17.0949 10.5435C16.7081 10.3261 16.3984 10.0362 16.1656 9.67391L14.3938 10.2609C14.4813 10.8261 14.4448 11.3878 14.2844 11.9461C14.124 12.5043 13.8396 13.0151 13.4313 13.4783L14.6781 15C14.8385 14.9275 15.0063 14.873 15.1813 14.8365C15.3563 14.8 15.5458 14.782 15.75 14.7826C16.4792 14.7826 17.099 15.0362 17.6094 15.5435C18.1198 16.0507 18.375 16.6667 18.375 17.3913C18.375 18.1159 18.1198 18.7319 17.6094 19.2391C17.099 19.7464 16.4792 20 15.75 20C15.0208 20 14.401 19.7464 13.8906 19.2391C13.3802 18.7319 13.125 18.1159 13.125 17.3913C13.125 17.1014 13.1725 16.8223 13.2676 16.5539C13.3627 16.2855 13.4902 16.0429 13.65 15.8261L12.4031 14.2826C11.8052 14.6159 11.167 14.7826 10.4886 14.7826C9.81021 14.7826 9.17233 14.6159 8.575 14.2826L7.35 15.8261C7.51042 16.0435 7.63817 16.2864 7.73325 16.5548C7.82833 16.8232 7.87558 17.102 7.875 17.3913C7.875 18.1159 7.61979 18.7319 7.10938 19.2391C6.59896 19.7464 5.97917 20 5.25 20Z" fill="white"/>
</svg>
