<svg width="11" height="11" viewBox="0 0 11 11" fill="none" xmlns="http://www.w3.org/2000/svg">
<path d="M11 4.95C11 4.65826 10.8946 4.37847 10.7071 4.17218C10.5196 3.96589 10.2652 3.85 10 3.85H6.84L7.32 1.3365C7.33 1.2815 7.335 1.221 7.335 1.1605C7.335 0.935 7.25 0.726 7.115 0.5775L6.585 0L3.295 3.619C3.11 3.8225 3 4.0975 3 4.4V9.9C3 10.1917 3.10536 10.4715 3.29289 10.6778C3.48043 10.8841 3.73478 11 4 11H8.5C8.915 11 9.27 10.725 9.42 10.329L10.93 6.4515C10.975 6.325 11 6.193 11 6.05V4.95ZM0 11H2V4.4H0V11Z" fill="#2B7EBA"/>
</svg>
