<svg width="12" height="12" viewBox="0 0 12 12" fill="none" xmlns="http://www.w3.org/2000/svg">
<path d="M6.503 9.56969C6.57012 9.63655 6.62337 9.71601 6.6597 9.8035C6.69604 9.89098 6.71474 9.98478 6.71474 10.0795C6.71474 10.1742 6.69604 10.268 6.6597 10.3555C6.62337 10.443 6.57012 10.5225 6.503 10.5893L6.14666 10.9456C5.47141 11.6207 4.55557 12 3.60063 12C2.64568 12 1.72985 11.6207 1.0546 10.9456C0.379351 10.2705 0 9.35485 0 8.40009C0 7.44534 0.379351 6.52969 1.0546 5.85457L2.50159 4.40847C3.15038 3.7582 4.02331 3.38056 4.94157 3.35291C5.85982 3.32525 6.7539 3.64968 7.44067 4.25972C7.51157 4.32274 7.56937 4.3991 7.61075 4.48444C7.65214 4.56978 7.67631 4.66244 7.68188 4.75713C7.68745 4.85181 7.67432 4.94666 7.64322 5.03627C7.61213 5.12588 7.56368 5.20848 7.50066 5.27937C7.43763 5.35026 7.36126 5.40805 7.2759 5.44942C7.19054 5.4908 7.09786 5.51497 7.00316 5.52054C6.90846 5.52611 6.81358 5.51297 6.72396 5.48188C6.63433 5.4508 6.55171 5.40236 6.48081 5.33935C6.06898 4.97367 5.53297 4.77913 4.98242 4.79552C4.43186 4.81191 3.90838 5.03799 3.51904 5.42752L2.07325 6.87182C1.66817 7.27683 1.44059 7.82613 1.44059 8.39889C1.44059 8.97166 1.66817 9.52096 2.07325 9.92596C2.47834 10.331 3.02775 10.5585 3.60063 10.5585C4.17351 10.5585 4.72292 10.331 5.12801 9.92596L5.48435 9.56969C5.55121 9.50277 5.63061 9.44968 5.718 9.41346C5.8054 9.37724 5.89907 9.35859 5.99368 9.35859C6.08828 9.35859 6.18196 9.37724 6.26936 9.41346C6.35675 9.44968 6.43615 9.50277 6.503 9.56969ZM10.9472 1.05263C10.2714 0.378558 9.35573 0 8.40113 0C7.44653 0 6.5309 0.378558 5.8551 1.05263L5.49875 1.40891C5.36351 1.54412 5.28753 1.72751 5.28753 1.91873C5.28753 2.10996 5.36351 2.29334 5.49875 2.42856C5.63399 2.56377 5.81742 2.63973 6.00868 2.63973C6.19994 2.63973 6.38336 2.56377 6.5186 2.42856L6.87495 2.07228C7.28004 1.66728 7.82945 1.43975 8.40233 1.43975C8.97521 1.43975 9.52462 1.66728 9.92971 2.07228C10.3348 2.47729 10.5624 3.02659 10.5624 3.59935C10.5624 4.17212 10.3348 4.72142 9.92971 5.12642L8.48332 6.57312C8.09364 6.96249 7.56986 7.18824 7.01917 7.20419C6.46848 7.22013 5.93251 7.02506 5.52095 6.65889C5.45004 6.59588 5.36742 6.54745 5.2778 6.51636C5.18817 6.48527 5.0933 6.47214 4.9986 6.47771C4.9039 6.48328 4.81122 6.50744 4.72586 6.54882C4.6405 6.5902 4.56412 6.64798 4.5011 6.71887C4.43807 6.78976 4.38963 6.87237 4.35854 6.96198C4.32744 7.05158 4.3143 7.14644 4.31987 7.24112C4.32545 7.3358 4.34961 7.42846 4.391 7.51381C4.43239 7.59915 4.49018 7.67551 4.56109 7.73852C5.24738 8.34843 6.14086 8.67306 7.05868 8.64596C7.9765 8.61887 8.84927 8.2421 9.49837 7.59277L10.9454 6.14667C11.6204 5.47117 11.9997 4.55548 12 3.60063C12.0003 2.64577 11.6217 1.72981 10.9472 1.05383V1.05263Z" fill="white"/>
</svg>
