<svg width="19" height="19" viewBox="0 0 19 19" fill="none" xmlns="http://www.w3.org/2000/svg">
<path d="M10.1534 15.0419C10.2576 15.1457 10.3403 15.2691 10.3967 15.4049C10.4531 15.5407 10.4821 15.6864 10.4821 15.8334C10.4821 15.9805 10.4531 16.1261 10.3967 16.2619C10.3403 16.3978 10.2576 16.5211 10.1534 16.6249L9.60032 17.1781C8.55221 18.2262 7.13067 18.815 5.64842 18.815C4.16616 18.815 2.74462 18.2262 1.69651 17.1781C0.648393 16.1299 0.0595703 14.7084 0.0595703 13.2261C0.0595703 11.7439 0.648393 10.3223 1.69651 9.27423L3.9425 7.02917C4.94955 6.01962 6.3045 5.43334 7.7298 5.39041C9.1551 5.34747 10.5429 5.85114 11.6089 6.79823C11.7189 6.89606 11.8086 7.01461 11.8729 7.1471C11.9371 7.2796 11.9746 7.42345 11.9833 7.57045C11.9919 7.71744 11.9715 7.8647 11.9233 8.00382C11.875 8.14293 11.7998 8.27118 11.702 8.38123C11.6042 8.49129 11.4856 8.581 11.3531 8.64524C11.2206 8.70948 11.0768 8.747 10.9298 8.75564C10.7828 8.76429 10.6355 8.7439 10.4964 8.69563C10.3573 8.64737 10.229 8.57218 10.119 8.47435C9.47976 7.90664 8.64777 7.60462 7.79321 7.63006C6.93865 7.6555 6.1261 8.00649 5.52178 8.61123L3.27764 10.8535C2.64887 11.4823 2.29564 12.3351 2.29564 13.2243C2.29564 14.1135 2.64887 14.9663 3.27764 15.5951C3.90641 16.2238 4.7592 16.5771 5.64842 16.5771C6.53763 16.5771 7.39042 16.2238 8.01919 15.5951L8.57231 15.0419C8.67608 14.938 8.79932 14.8556 8.93497 14.7994C9.07063 14.7432 9.21603 14.7142 9.36288 14.7142C9.50972 14.7142 9.65513 14.7432 9.79078 14.7994C9.92643 14.8556 10.0497 14.938 10.1534 15.0419ZM17.0516 1.81924C16.0026 0.772738 14.5814 0.185028 13.0997 0.185028C11.618 0.185028 10.1967 0.772738 9.14777 1.81924L8.59466 2.37236C8.38474 2.58228 8.26681 2.86699 8.26681 3.16386C8.26681 3.46073 8.38474 3.74544 8.59466 3.95536C8.80457 4.16527 9.08929 4.28321 9.38616 4.28321C9.68303 4.28321 9.96774 4.16527 10.1777 3.95536L10.7308 3.40224C11.3595 2.77347 12.2123 2.42023 13.1015 2.42023C13.9908 2.42023 14.8436 2.77347 15.4723 3.40224C16.1011 4.03101 16.4543 4.8838 16.4543 5.77301C16.4543 6.66222 16.1011 7.51502 15.4723 8.14378L13.2273 10.3898C12.6224 10.9943 11.8094 11.3447 10.9546 11.3695C10.0999 11.3943 9.26793 11.0914 8.62911 10.5229C8.51905 10.4251 8.39081 10.3499 8.25169 10.3017C8.11258 10.2534 7.96532 10.233 7.81832 10.2416C7.67133 10.2503 7.52748 10.2878 7.39498 10.352C7.26248 10.4163 7.14394 10.506 7.04611 10.6161C6.94828 10.7261 6.87309 10.8544 6.82483 10.9935C6.77656 11.1326 6.75617 11.2798 6.76482 11.4268C6.77347 11.5738 6.81098 11.7177 6.87522 11.8502C6.93946 11.9827 7.02917 12.1012 7.13923 12.1991C8.20448 13.1459 9.59132 13.6499 11.016 13.6079C12.4406 13.5658 13.7953 12.9809 14.8028 11.9728L17.0488 9.72771C18.0965 8.679 18.6853 7.25739 18.6858 5.77499C18.6863 4.29258 18.0986 2.87055 17.0516 1.8211V1.81924Z" fill="#D64A4A"/>
</svg>
