<svg width="25" height="25" viewBox="0 0 25 25" fill="none" xmlns="http://www.w3.org/2000/svg">
<path d="M10.7432 4.44336C9.6823 4.44336 8.66488 4.86479 7.91474 5.61493C7.16459 6.36508 6.74316 7.38249 6.74316 8.44336C6.74316 9.50423 7.16459 10.5216 7.91474 11.2718C8.66488 12.0219 9.6823 12.4434 10.7432 12.4434C11.804 12.4434 12.8214 12.0219 13.5716 11.2718C14.3217 10.5216 14.7432 9.50423 14.7432 8.44336C14.7432 7.38249 14.3217 6.36508 13.5716 5.61493C12.8214 4.86479 11.804 4.44336 10.7432 4.44336ZM4.74316 8.44336C4.74316 6.85206 5.37531 5.32594 6.50052 4.20072C7.62574 3.0755 9.15187 2.44336 10.7432 2.44336C12.3345 2.44336 13.8606 3.0755 14.9858 4.20072C16.111 5.32594 16.7432 6.85206 16.7432 8.44336C16.7432 10.0347 16.111 11.5608 14.9858 12.686C13.8606 13.8112 12.3345 14.4434 10.7432 14.4434C9.15187 14.4434 7.62574 13.8112 6.50052 12.686C5.37531 11.5608 4.74316 10.0347 4.74316 8.44336ZM17.5712 4.20036C17.664 4.10738 17.7743 4.03362 17.8957 3.9833C18.0171 3.93298 18.1472 3.90707 18.2787 3.90707C18.4101 3.90707 18.5402 3.93298 18.6616 3.9833C18.783 4.03362 18.8933 4.10738 18.9862 4.20036C19.5434 4.75752 19.9855 5.419 20.2871 6.14702C20.5887 6.87504 20.7439 7.65534 20.7439 8.44336C20.7439 9.23138 20.5887 10.0117 20.2871 10.7397C19.9855 11.4677 19.5434 12.1292 18.9862 12.6864C18.8933 12.7793 18.783 12.853 18.6616 12.9033C18.5402 12.9535 18.4101 12.9794 18.2787 12.9794C18.1473 12.9794 18.0172 12.9535 17.8958 12.9033C17.7744 12.853 17.6641 12.7793 17.5712 12.6864C17.4783 12.5934 17.4046 12.4831 17.3543 12.3618C17.304 12.2404 17.2781 12.1103 17.2781 11.9789C17.2781 11.8475 17.304 11.7174 17.3543 11.596C17.4046 11.4746 17.4783 11.3643 17.5712 11.2714C18.321 10.5212 18.7423 9.50402 18.7423 8.44336C18.7423 7.3827 18.321 6.36547 17.5712 5.61536C17.4782 5.52249 17.4044 5.4122 17.3541 5.2908C17.3038 5.1694 17.2779 5.03927 17.2779 4.90786C17.2779 4.77644 17.3038 4.64632 17.3541 4.52492C17.4044 4.40352 17.4782 4.29323 17.5712 4.20036ZM18.2732 17.2004C18.3376 16.9433 18.5015 16.7224 18.7287 16.5861C18.956 16.4498 19.228 16.4092 19.4852 16.4734C20.8132 16.8054 21.6542 17.6534 22.1372 18.6214C22.6052 19.5564 22.7432 20.6014 22.7432 21.4434C22.7432 21.7086 22.6378 21.9629 22.4503 22.1505C22.2627 22.338 22.0084 22.4434 21.7432 22.4434C21.4779 22.4434 21.2236 22.338 21.0361 22.1505C20.8485 21.9629 20.7432 21.7086 20.7432 21.4434C20.7432 20.7864 20.6312 20.0804 20.3492 19.5154C20.0822 18.9824 19.6722 18.5814 19.0002 18.4134C18.7431 18.3489 18.5222 18.185 18.3859 17.9578C18.2496 17.7305 18.209 17.4585 18.2732 17.2014V17.2004ZM7.24316 18.4434C5.98316 18.4434 4.74316 19.6564 4.74316 21.4434C4.74316 21.7086 4.63781 21.9629 4.45027 22.1505C4.26273 22.338 4.00838 22.4434 3.74316 22.4434C3.47795 22.4434 3.22359 22.338 3.03606 22.1505C2.84852 21.9629 2.74316 21.7086 2.74316 21.4434C2.74316 18.8114 4.63616 16.4434 7.24316 16.4434H14.2432C16.8502 16.4434 18.7432 18.8114 18.7432 21.4434C18.7432 21.7086 18.6378 21.9629 18.4503 22.1505C18.2627 22.338 18.0084 22.4434 17.7432 22.4434C17.4779 22.4434 17.2236 22.338 17.0361 22.1505C16.8485 21.9629 16.7432 21.7086 16.7432 21.4434C16.7432 19.6564 15.5032 18.4434 14.2432 18.4434H7.24316Z" fill="#FBBF67"/>
</svg>
