<svg width="24" height="25" viewBox="0 0 24 25" fill="none" xmlns="http://www.w3.org/2000/svg">
<g clip-path="url(#clip0_489_683)">
<path d="M9.77979 10.1852C11.9889 10.1852 13.7798 8.39433 13.7798 6.18519C13.7798 3.97605 11.9889 2.18519 9.77979 2.18519C7.57065 2.18519 5.77979 3.97605 5.77979 6.18519C5.77979 8.39433 7.57065 10.1852 9.77979 10.1852Z" fill="white" fill-opacity="0.3"/>
<path d="M10.9602 21.8652C10.7399 21.6473 10.5961 21.3639 10.5504 21.0574C10.5047 20.7509 10.5596 20.4379 10.7068 20.1652L11.0602 19.4985L10.3335 19.2785C10.0372 19.1858 9.77919 18.9989 9.59872 18.7462C9.41824 18.4936 9.32512 18.1889 9.3335 17.8785V16.5119C9.33294 16.2028 9.4318 15.9018 9.61548 15.6533C9.79916 15.4048 10.0579 15.222 10.3535 15.1319L11.0802 14.9119L10.7335 14.2452C10.5906 13.9762 10.5362 13.6691 10.5781 13.3674C10.62 13.0658 10.7561 12.785 10.9668 12.5652C10.4539 12.498 9.93742 12.4623 9.42016 12.4585C7.89238 12.4226 6.37548 12.7242 4.97766 13.3418C3.57983 13.9595 2.33553 14.878 1.3335 16.0319V21.1985C1.3335 21.3753 1.40373 21.5449 1.52876 21.6699C1.65378 21.7949 1.82335 21.8652 2.00016 21.8652H10.9602Z" fill="white" fill-opacity="0.3"/>
<path d="M22.4665 16.2919L21.1332 15.8919C21.0408 15.5626 20.9111 15.245 20.7465 14.9452L21.4132 13.7052C21.4389 13.6592 21.4484 13.6058 21.4399 13.5537C21.4314 13.5017 21.4055 13.454 21.3665 13.4185L20.3998 12.4452C20.3626 12.409 20.3151 12.385 20.2639 12.3767C20.2126 12.3683 20.16 12.376 20.1132 12.3985L18.8798 13.0652C18.5763 12.9003 18.2569 12.7663 17.9265 12.6652L17.5198 11.3319C17.502 11.2827 17.4693 11.2403 17.4263 11.2104C17.3833 11.1806 17.3322 11.1648 17.2798 11.1652H15.8932C15.8412 11.1666 15.7909 11.1841 15.7492 11.2151C15.7074 11.2461 15.6762 11.2892 15.6598 11.3385L15.2598 12.6719C14.9231 12.7698 14.5987 12.9063 14.2932 13.0785L13.0865 12.4119C13.0396 12.3869 12.986 12.3774 12.9334 12.3846C12.8808 12.3917 12.8317 12.4153 12.7932 12.4519L11.8132 13.4119C11.7746 13.449 11.7492 13.4978 11.7407 13.5507C11.7323 13.6036 11.7414 13.6579 11.7665 13.7052L12.4332 14.9185C12.2546 15.2196 12.1093 15.5393 11.9998 15.8719L10.6665 16.2785C10.6161 16.2931 10.5718 16.3238 10.5405 16.366C10.5092 16.4081 10.4926 16.4594 10.4932 16.5119V17.8785C10.4926 17.931 10.5092 17.9823 10.5405 18.0244C10.5718 18.0666 10.6161 18.0973 10.6665 18.1119L11.9998 18.5185C12.0998 18.845 12.2339 19.1601 12.3998 19.4585L11.7332 20.7252C11.708 20.7725 11.699 20.8267 11.7074 20.8797C11.7158 20.9326 11.7413 20.9813 11.7798 21.0185L12.7732 21.9852C12.8117 22.0218 12.8608 22.0453 12.9134 22.0525C12.966 22.0597 13.0196 22.0501 13.0665 22.0252L14.3132 21.3585C14.6099 21.5181 14.9228 21.6455 15.2465 21.7385L15.6465 23.1052C15.6633 23.1556 15.6955 23.1995 15.7386 23.2306C15.7816 23.2617 15.8334 23.2784 15.8865 23.2785H17.2532C17.3052 23.2771 17.3554 23.2597 17.3972 23.2287C17.4389 23.1976 17.4701 23.1545 17.4865 23.1052L17.8865 21.7385C18.2064 21.6466 18.515 21.5192 18.8065 21.3585L20.0665 22.0252C20.1134 22.0501 20.167 22.0597 20.2196 22.0525C20.2723 22.0453 20.3213 22.0218 20.3598 21.9852L21.3332 21.0185C21.3698 20.98 21.3933 20.9309 21.4005 20.8783C21.4077 20.8257 21.3981 20.7721 21.3732 20.7252L20.7065 19.4719C20.866 19.1798 20.9934 18.8713 21.0865 18.5519L22.4198 18.1452C22.4699 18.1291 22.514 18.0981 22.5461 18.0565C22.5782 18.0148 22.597 17.9644 22.5998 17.9119V16.5319C22.6015 16.4835 22.5899 16.4357 22.5664 16.3934C22.543 16.3511 22.5084 16.316 22.4665 16.2919ZM16.5798 19.4385C16.1392 19.4398 15.708 19.3104 15.341 19.0665C14.9739 18.8226 14.6875 18.4753 14.5179 18.0686C14.3484 17.6618 14.3033 17.2139 14.3885 16.7816C14.4737 16.3492 14.6852 15.9518 14.9963 15.6397C15.3075 15.3277 15.7042 15.1149 16.1363 15.0285C16.5684 14.942 17.0165 14.9857 17.4237 15.1541C17.831 15.3224 18.1792 15.6078 18.4241 15.9741C18.6691 16.3404 18.7998 16.7712 18.7998 17.2119C18.7999 17.8013 18.5662 18.3666 18.15 18.784C17.7339 19.2014 17.1692 19.4368 16.5798 19.4385Z" fill="white" fill-opacity="0.3"/>
</g>
<defs>
<clipPath id="clip0_489_683">
<rect width="24" height="24" fill="white" transform="translate(0 0.651855)"/>
</clipPath>
</defs>
</svg>
