<svg width="23" height="22" viewBox="0 0 23 22" fill="none" xmlns="http://www.w3.org/2000/svg">
<path d="M11.0626 19.4996C11.3155 19.9196 11.6155 20.3079 11.9541 20.6568C11.1244 20.8145 10.2295 20.8985 9.28578 20.8985C4.32293 20.8985 0.714355 18.6982 0.714355 15.5114V14.8985C0.714355 14.2165 0.985273 13.5625 1.46751 13.0802C1.94975 12.598 2.6038 12.3271 3.28578 12.3271H11.4286C11.1293 12.7251 10.8773 13.1565 10.6778 13.6128H3.28578C2.9663 13.6128 2.65827 13.7317 2.42169 13.9464C2.18512 14.1611 2.03695 14.4562 2.00607 14.7742L2.00007 14.8985V15.5114C2.00007 17.8034 4.90493 19.6128 9.28578 19.6128C9.90807 19.6128 10.5012 19.5734 11.0626 19.4996ZM9.28578 0.327072C9.96115 0.327072 10.6299 0.460096 11.2539 0.718549C11.8778 0.977002 12.4448 1.35582 12.9223 1.83338C13.3999 2.31094 13.7787 2.87788 14.0372 3.50184C14.2956 4.1258 14.4286 4.79456 14.4286 5.46993C14.4286 6.1453 14.2956 6.81406 14.0372 7.43802C13.7787 8.06198 13.3999 8.62892 12.9223 9.10648C12.4448 9.58404 11.8778 9.96286 11.2539 10.2213C10.6299 10.4798 9.96115 10.6128 9.28578 10.6128C7.92181 10.6128 6.61371 10.071 5.64924 9.10648C4.68476 8.14201 4.14293 6.8339 4.14293 5.46993C4.14293 4.10596 4.68476 2.79785 5.64924 1.83338C6.61371 0.868907 7.92181 0.327072 9.28578 0.327072ZM9.28578 1.61279C8.26281 1.61279 7.28173 2.01916 6.55837 2.74252C5.83502 3.46587 5.42864 4.44695 5.42864 5.46993C5.42864 6.49291 5.83502 7.47399 6.55837 8.19734C7.28173 8.9207 8.26281 9.32707 9.28578 9.32707C10.3088 9.32707 11.2898 8.9207 12.0132 8.19734C12.7366 7.47399 13.1429 6.49291 13.1429 5.46993C13.1429 4.44695 12.7366 3.46587 12.0132 2.74252C11.2898 2.01916 10.3088 1.61279 9.28578 1.61279ZM22.1429 16.1842C22.1429 17.6618 21.5559 19.079 20.5111 20.1238C19.4662 21.1687 18.0491 21.7556 16.5715 21.7556C15.0939 21.7556 13.6767 21.1687 12.6319 20.1238C11.5871 19.079 11.0001 17.6618 11.0001 16.1842C11.0001 14.7066 11.5871 13.2895 12.6319 12.2446C13.6767 11.1998 15.0939 10.6128 16.5715 10.6128C18.0491 10.6128 19.4662 11.1998 20.5111 12.2446C21.5559 13.2895 22.1429 14.7066 22.1429 16.1842ZM14.1775 14.8985L15.1606 13.9162C15.2411 13.8357 15.2863 13.7266 15.2863 13.6128C15.2863 13.499 15.2411 13.3898 15.1606 13.3094C15.0802 13.2289 14.971 13.1837 14.8572 13.1837C14.7434 13.1837 14.6343 13.2289 14.5538 13.3094L12.8395 15.0236C12.7996 15.0635 12.7679 15.1107 12.7463 15.1628C12.7247 15.2149 12.7136 15.2707 12.7136 15.3271C12.7136 15.3834 12.7247 15.4393 12.7463 15.4913C12.7679 15.5434 12.7996 15.5907 12.8395 15.6305L14.5538 17.3448C14.5936 17.3846 14.6409 17.4162 14.693 17.4378C14.7451 17.4594 14.8009 17.4705 14.8572 17.4705C14.9136 17.4705 14.9694 17.4594 15.0214 17.4378C15.0735 17.4162 15.1208 17.3846 15.1606 17.3448C15.2005 17.3049 15.2321 17.2576 15.2537 17.2056C15.2752 17.1535 15.2863 17.0977 15.2863 17.0414C15.2863 16.985 15.2752 16.9292 15.2537 16.8771C15.2321 16.8251 15.2005 16.7778 15.1606 16.7379L14.1775 15.7556H16.3572C16.9824 15.7556 17.5819 16.004 18.024 16.446C18.466 16.8881 18.7144 17.4876 18.7144 18.1128V18.3271C18.7144 18.4407 18.7595 18.5497 18.8399 18.6301C18.9203 18.7105 19.0293 18.7556 19.1429 18.7556C19.2566 18.7556 19.3656 18.7105 19.446 18.6301C19.5263 18.5497 19.5715 18.4407 19.5715 18.3271V18.1128C19.5715 17.2603 19.2329 16.4427 18.6301 15.8399C18.0273 15.2371 17.2097 14.8985 16.3572 14.8985H14.1775Z" fill="#656769"/>
</svg>
