<svg width="44" height="45" viewBox="0 0 44 45" fill="none" xmlns="http://www.w3.org/2000/svg">
<path d="M19.4375 22C22.3383 22 25.1203 20.8477 27.1715 18.7965C29.2227 16.7453 30.375 13.9633 30.375 11.0625C30.375 8.16169 29.2227 5.3797 27.1715 3.32852C25.1203 1.27734 22.3383 0.125 19.4375 0.125C16.5367 0.125 13.7547 1.27734 11.7035 3.32852C9.65234 5.3797 8.5 8.16169 8.5 11.0625C8.5 13.9633 9.65234 16.7453 11.7035 18.7965C13.7547 20.8477 16.5367 22 19.4375 22ZM6.15625 25.125C4.70585 25.125 3.31485 25.7012 2.28926 26.7268C1.26367 27.7523 0.6875 29.1433 0.6875 30.5938V31.375C0.6875 35.1141 3.06719 38.2766 6.44531 40.4266C9.84219 42.5891 14.4406 43.875 19.4375 43.875C20.6 43.875 21.7422 43.8047 22.8516 43.6719C21.2903 42.353 20.0361 40.709 19.1765 38.8549C18.3169 37.0008 17.8727 34.9812 17.875 32.9375C17.875 30.0469 18.7469 27.3594 20.2437 25.125H6.15625ZM31.9375 44.6562C35.0455 44.6562 38.0262 43.4216 40.2239 41.2239C42.4216 39.0262 43.6562 36.0455 43.6562 32.9375C43.6562 29.8295 42.4216 26.8488 40.2239 24.6511C38.0262 22.4534 35.0455 21.2188 31.9375 21.2188C28.8295 21.2188 25.8488 22.4534 23.6511 24.6511C21.4534 26.8488 20.2188 29.8295 20.2188 32.9375C20.2188 36.0455 21.4534 39.0262 23.6511 41.2239C25.8488 43.4216 28.8295 44.6562 31.9375 44.6562ZM30.0313 28.6875L28.125 30.5938H32.3281C34.0893 30.5938 35.7784 31.2934 37.0238 32.5387C38.2691 33.7841 38.9688 35.4732 38.9688 37.2344V38.0156C38.9688 38.3264 38.8453 38.6245 38.6255 38.8443C38.4057 39.064 38.1077 39.1875 37.7969 39.1875C37.4861 39.1875 37.188 39.064 36.9682 38.8443C36.7485 38.6245 36.625 38.3264 36.625 38.0156V37.2344C36.625 36.6701 36.5139 36.1114 36.2979 35.59C36.082 35.0687 35.7655 34.595 35.3665 34.196C34.9675 33.797 34.4938 33.4805 33.9725 33.2646C33.4511 33.0486 32.8924 32.9375 32.3281 32.9375H28.125L30.0313 34.8438C30.1464 34.951 30.2387 35.0804 30.3028 35.2242C30.3668 35.3679 30.4013 35.5231 30.404 35.6804C30.4068 35.8378 30.3779 35.9941 30.3189 36.14C30.26 36.2859 30.1723 36.4185 30.061 36.5297C29.9497 36.641 29.8172 36.7288 29.6712 36.7877C29.5253 36.8466 29.369 36.8756 29.2117 36.8728C29.0543 36.87 28.8992 36.8356 28.7554 36.7715C28.6117 36.7075 28.4823 36.6151 28.375 36.5L24.4687 32.5938C24.2493 32.374 24.126 32.0762 24.126 31.7656C24.126 31.4551 24.2493 31.1572 24.4687 30.9375L28.375 27.0312C28.4823 26.9161 28.6117 26.8238 28.7554 26.7597C28.8992 26.6957 29.0543 26.6612 29.2117 26.6585C29.369 26.6557 29.5253 26.6846 29.6712 26.7436C29.8172 26.8025 29.9497 26.8902 30.061 27.0015C30.1723 27.1128 30.26 27.2453 30.3189 27.3913C30.3779 27.5372 30.4068 27.6935 30.404 27.8508C30.4013 28.0082 30.3668 28.1633 30.3028 28.3071C30.2387 28.4508 30.1464 28.5802 30.0313 28.6875Z" fill="#32B5AD"/>
</svg>
