<svg width="20" height="20" viewBox="0 0 20 20" fill="none" xmlns="http://www.w3.org/2000/svg">
<path d="M12 5H12.01M8 17H4C3.20435 17 2.44129 16.6839 1.87868 16.1213C1.31607 15.5587 1 14.7956 1 14V4C1 3.20435 1.31607 2.44129 1.87868 1.87868C2.44129 1.31607 3.20435 1 4 1H14C14.7956 1 15.5587 1.31607 16.1213 1.87868C16.6839 2.44129 17 3.20435 17 4V8" stroke="#32B5AD" stroke-width="2" stroke-linecap="round" stroke-linejoin="round"/>
<path d="M1 12L5 7.99995C5.928 7.10695 7.072 7.10695 8 7.99995L11 11L12 9.99995C12.31 9.70195 12.644 9.50295 12.987 9.40395M15.42 12.61C15.615 12.4149 15.8465 12.2602 16.1013 12.1547C16.3561 12.0492 16.6292 11.9948 16.905 11.9948C17.1808 11.9948 17.4539 12.0492 17.7087 12.1547C17.9635 12.2602 18.195 12.4149 18.39 12.61C18.585 12.805 18.7397 13.0365 18.8452 13.2913C18.9508 13.5461 19.0051 13.8192 19.0051 14.0949C19.0051 14.3707 18.9508 14.6438 18.8452 14.8986C18.7397 15.1534 18.585 15.3849 18.39 15.58L15 19H12V16L15.42 12.61Z" stroke="#32B5AD" stroke-width="2" stroke-linecap="round" stroke-linejoin="round"/>
</svg>
