<svg width="17" height="7" viewBox="0 0 17 7" fill="none" xmlns="http://www.w3.org/2000/svg">
<path d="M10.167 0.956699L4.34604 6.80045C4.24489 6.89864 4.10969 6.95352 3.96899 6.95352C3.82829 6.95352 3.6931 6.89864 3.59195 6.80045L0.681444 3.87857C0.597059 3.77536 0.553935 3.64432 0.56046 3.51094C0.566985 3.37757 0.622692 3.25141 0.716746 3.15698C0.810801 3.06256 0.936477 3.00664 1.06933 3.00009C1.20218 2.99354 1.33271 3.03683 1.43553 3.12154L3.96899 5.67154L9.41296 0.199669C9.51578 0.114954 9.64631 0.071661 9.77916 0.0782114C9.91201 0.0847617 10.0377 0.140687 10.1317 0.235109C10.2258 0.32953 10.2815 0.455697 10.288 0.589069C10.2946 0.72244 10.2514 0.85348 10.167 0.956699V0.956699ZM16.2526 0.199669C16.1523 0.0999096 16.0168 0.0439453 15.8756 0.0439453C15.7344 0.0439453 15.5989 0.0999096 15.4986 0.199669L10.0546 5.67154L8.88378 4.49615C8.78311 4.40459 8.65123 4.35539 8.51543 4.35875C8.37963 4.3621 8.25032 4.41776 8.15427 4.51418C8.05822 4.61061 8.00278 4.74043 7.99944 4.87676C7.99609 5.01309 8.0451 5.14549 8.13631 5.24654L9.67755 6.80045C9.7787 6.89864 9.9139 6.95352 10.0546 6.95352C10.1953 6.95352 10.3305 6.89864 10.4316 6.80045L16.2526 0.956699C16.352 0.855978 16.4078 0.719947 16.4078 0.578184C16.4078 0.436421 16.352 0.30039 16.2526 0.199669V0.199669Z" fill="#8A91A8"/>
</svg>
